#!OML:ASF H:\Swim 2\Project 1\Capture day 1\Session 1\male.ASF
:FULLY-SPECIFIED
:DEGREES
1658
root 8.17395 9.80735 11.5236 91.1297 -5.01068 -2.49533
lowerback 0.55125 -6.57034 -4.36115
upperback -3.36241 -9.05104 -1.63326
thorax -3.38249 -4.44903 1.00724
lowerneck -22.0172 2.69563 -11.3745
upperneck 18.5062 6.97304 1.55836
head 9.01163 2.57825 3.31154
rclavicle 4.77083e-014 1.39149e-014
rhumerus -45.6316 16.7265 -56.7424
rradius 21.2099
rwrist 0.579681
rhand -8.24843 9.14848
rfingers 7.12502
rthumb 17.6698 -20.0686
lclavicle 4.77083e-014 1.39149e-014
lhumerus 76.428 25.5227 25.0327
lradius 27.5796
lwrist 14.0773
lhand -39.4333 -6.31613
lfingers 7.12502
lthumb -12.4214 23.2948
rfemur -28.5058 7.56973 24.0008
rtibia 32.3653
rfoot 43.7714 8.59498
rtoes 21.4743
lfemur -33.9478 -4.98003 -17.7924
ltibia 37.3847
lfoot 13.3164 16.3479
ltoes 40.2539
1659
root 8.17684 9.81358 11.5216 91.1014 -4.97444 -2.8359
lowerback 0.618392 -6.56051 -4.47038
upperback -3.40015 -9.04803 -1.66198
thorax -3.44826 -4.44246 1.04748
lowerneck -21.9448 2.73407 -11.3742
upperneck 18.3374 6.98193 1.67664
head 8.93301 2.60672 3.34555
rclavicle -3.81667e-014 2.8625e-014
rhumerus -44.1836 14.8253 -53.3173
rradius 20.1539
rwrist 1.46856
rhand -7.96391 8.804
rfingers 7.12502
rthumb 17.9436 -20.3882
lclavicle -3.81667e-014 2.8625e-014
lhumerus 75.4139 25.8374 23.4943
lradius 28.3121
lwrist 15.7757
lhand -39.7427 -6.46868
lfingers 7.12502
lthumb -12.7197 23.1239
rfemur -27.8934 7.52753 24.153
rtibia 33.21
rfoot 44.2037 8.69057
rtoes 21.4458
lfemur -34.4416 -5.55619 -17.4326
ltibia 36.2252
lfoot 12.7752 17.8699
ltoes 40.7698
1660
root 8.1814 9.8215 11.5211 91.0561 -4.94517 -3.2668
lowerback 0.710267 -6.52498 -4.60028
upperback -3.43175 -9.01126 -1.67476
thorax -3.51741 -4.41772 1.11674
lowerneck -21.8852 2.77636 -11.3346
upperneck 18.2131 6.99997 1.7382
head 8.87576 2.6326 3.35687
rclavicle 2.22639e-014 5.1684e-015
rhumerus -42.7132 12.8431 -49.8222
rradius 19.2503
rwrist 2.4108
rhand -7.77845 8.40058
rfingers 7.12502
rthumb 18.122 -20.7752
lclavicle 2.22639e-014 5.1684e-015
lhumerus 74.4633 26.1832 22.1321
lradius 28.9437
lwrist 17.2082
lhand -40.0718 -6.59865
lfingers 7.12502
lthumb -13.037 22.9739
rfemur -27.3387 7.49074 24.2875
rtibia 34.0785
rfoot 44.7301 8.73536
rtoes 21.6448
lfemur -34.8123 -6.20356 -17.016
ltibia 35.0688
lfoot 12.1563 19.364
ltoes 41.1603
1661
root 8.18759 9.83089 11.5214 90.993 -4.92181 -3.78156
lowerback 0.828171 -6.46417 -4.75476
upperback -3.45723 -8.9416 -1.67014
thorax -3.59014 -4.37505 1.21861
lowerneck -21.8395 2.82289 -11.2585
upperneck 18.1282 7.02775 1.74508
head 8.83797 2.65659 3.34664
rclavicle 7.95139e-014 -7.95139e-016
rhumerus -41.2431 10.8194 -46.3214
rradius 18.5028
rwrist 3.36345
rhand -7.72101 7.95483
rfingers 7.12502
rthumb 18.1773 -21.2158
lclavicle 7.95139e-014 -7.95139e-016
lhumerus 73.5872 26.5516 20.9553
lradius 29.469
lwrist 18.3684
lhand -40.4124 -6.63406
lfingers 7.12502
lthumb -13.3653 22.9173
rfemur -26.8628 7.44969 24.4056
rtibia 34.9696
rfoot 45.3708 8.73882
rtoes 22.0325
lfemur -35.0654 -6.89913 -16.5524
ltibia 33.9695
lfoot 11.488 20.7363
ltoes 41.4419
1662
root 8.19535 9.84127 11.5212 90.9122 -4.90297 -4.36381
lowerback 0.971518 -6.38381 -4.9299
upperback -3.47525 -8.84689 -1.65144
thorax -3.66589 -4.31856 1.3476
lowerneck -21.8201 2.87542 -11.139
upperneck 18.085 7.06689 1.699
head 8.82257 2.68 3.3151
rclavicle 2.22639e-014 3.49861e-014
rhumerus -39.7743 8.76627 -42.8641
rradius 17.9072
rwrist 4.29314
rhand -7.77994 7.4572
rfingers 7.12502
rthumb 18.1206 -21.7187
lclavicle 2.22639e-014 3.49861e-014
lhumerus 72.8209 26.9355 20.0104
lradius 29.8825
lwrist 19.2687
lhand -40.7417 -6.55084
lfingers 7.12502
lthumb -13.6827 22.9794
rfemur -26.4782 7.39917 24.5067
rtibia 35.8597
rfoot 46.1008 8.69395
rtoes 22.5688
lfemur -35.2056 -7.60181 -16.0658
ltibia 32.9749
lfoot 10.804 21.896
ltoes 41.6675
1663
root 8.20448 9.8521 11.5201 90.8224 -4.89524 -4.99137
lowerback 1.12772 -6.28987 -5.13011
upperback -3.48693 -8.73503 -1.62282
thorax -3.73881 -4.25237 1.50042
lowerneck -21.8271 2.92883 -10.9837
upperneck 18.0847 7.1065 1.62855
head 8.82903 2.70059 3.27196
rclavicle 9.54166e-015 1.63003e-014
rhumerus -38.3144 6.71002 -39.4978
rradius 17.4586
rwrist 5.13865
rhand -7.91966 6.93899
rfingers 7.12502
rthumb 17.9861 -22.2493
lclavicle 9.54166e-015 1.63003e-014
lhumerus 72.1646 27.3287 19.2792
lradius 30.1999
lwrist 19.9885
lhand -41.0614 -6.34405
lfingers 7.12502
lthumb -13.9908 23.1652
rfemur -26.1913 7.33158 24.5806
rtibia 36.7042
rfoot 46.8316 8.73357
rtoes 23.1137
lfemur -35.2527 -8.25503 -15.6048
ltibia 32.1242
lfoot 10.1965 22.77
ltoes 41.8522
1664
root 8.21488 9.86282 11.5176 90.719 -4.90106 -5.6343
lowerback 1.29988 -6.19207 -5.35749
upperback -3.48917 -8.61947 -1.5869
thorax -3.80717 -4.18322 1.67597
lowerneck -21.9995 2.95967 -10.6211
upperneck 18.3263 7.1438 1.27435
head 8.97015 2.68585 3.11216
rclavicle -1.90833e-014 1.98785e-014
rhumerus -36.874 4.69882 -36.2776
rradius 17.1681
rwrist 5.8233
rhand -8.14374 6.38506
rfingers 7.12502
rthumb 17.7705 -22.823
lclavicle -1.90833e-014 1.98785e-014
lhumerus 71.6049 27.7317 18.7313
lradius 30.4437
lwrist 20.6287
lhand -41.3855 -6.04649
lfingers 7.12502
lthumb -14.3031 23.4409
rfemur -25.988 7.23835 24.6223
rtibia 37.4489
rfoot 47.4768 8.84722
rtoes 23.5189
lfemur -35.2109 -8.79345 -15.2258
ltibia 31.4471
lfoot 9.71526 23.3303
ltoes 42.0136
1665
root 8.22645 9.87264 11.5133 90.6161 -4.92221 -6.26769
lowerback 1.4754 -6.09798 -5.59908
upperback -3.48975 -8.51043 -1.55132
thorax -3.87461 -4.11675 1.85894
lowerneck -22.3247 2.95635 -10.0013
upperneck 18.7899 7.1653 0.549819
head 9.24556 2.62301 2.79382
rclavicle 7.31528e-014 1.59028e-015
rhumerus -35.4726 2.77832 -33.2459
rradius 17.0429
rwrist 6.26335
rhand -8.40316 5.832
rfingers 7.12502
rthumb 17.5209 -23.3985
lclavicle 7.31528e-014 1.59028e-015
lhumerus 71.1179 28.1308 18.3179
lradius 30.6408
lwrist 21.2844
lhand -41.7251 -5.69424
lfingers 7.12502
lthumb -14.6303 23.7697
rfemur -25.8698 7.11374 24.6284
rtibia 38.0409
rfoot 47.9761 8.96771
rtoes 23.7966
lfemur -35.103 -9.1482 -14.9826
ltibia 30.9623
lfoot 9.37284 23.5925
ltoes 42.1148
1666
root 8.23911 9.88095 11.5066 90.5202 -4.95976 -6.86849
lowerback 1.64959 -6.01442 -5.84319
upperback -3.49257 -8.41712 -1.52194
thorax -3.94441 -4.05795 2.03722
lowerneck -22.7458 2.93243 -9.1438
upperneck 19.3993 7.18293 -0.521558
head 9.61874 2.52241 2.32142
rclavicle -7.31528e-014 -1.70955e-014
rhumerus -34.1349 1.05463 -30.4617
rradius 17.1072
rwrist 6.30576
rhand -8.67943 5.27702
rfingers 7.12502
rthumb 17.255 -23.9769
lclavicle -7.31528e-014 -1.70955e-014
lhumerus 70.6473 28.5141 17.9449
lradius 30.8323
lwrist 22.0957
lhand -42.1207 -5.34388
lfingers 7.12502
lthumb -15.0115 24.092
rfemur -25.831 6.95286 24.5973
rtibia 38.4386
rfoot 48.2642 9.10915
rtoes 23.8821
lfemur -34.9418 -9.2749 -14.9123
ltibia 30.6757
lfoot 9.12926 23.5987
ltoes 42.0403
1667
root 8.2528 9.88737 11.4981 90.427 -5.00747 -7.42099
lowerback 1.83103 -5.94501 -6.0767
upperback -3.50093 -8.345 -1.50065
thorax -4.02624 -4.00961 2.20335
lowerneck -23.1622 2.91503 -8.11417
upperneck 20.0058 7.22172 -1.86682
head 10.0143 2.40835 1.7225
rclavicle -5.40694e-014 -8.74653e-015
rhumerus -32.8735 -0.381584 -27.9515
rradius 17.3723
rwrist 5.80503
rhand -8.94656 4.71419
rfingers 7.12502
rthumb 16.9979 -24.5621
lclavicle -5.40694e-014 -8.74653e-015
lhumerus 70.1425 28.8681 17.5329
lradius 31.0458
lwrist 23.1367
lhand -42.5896 -5.05308
lfingers 7.12502
lthumb -15.4631 24.3485
rfemur -25.8599 6.75809 24.5367
rtibia 38.617
rfoot 48.3443 9.18882
rtoes 23.9135
lfemur -34.7276 -9.15945 -15.0255
ltibia 30.5822
lfoot 8.96701 23.3891
ltoes 41.7397
1668
root 8.26736 9.89145 11.4881 90.344 -5.05659 -7.91934
lowerback 2.00691 -5.89137 -6.28073
upperback -3.51604 -8.29471 -1.48957
thorax -4.11656 -3.97289 2.34375
lowerneck -23.4773 2.92025 -7.07536
upperneck 20.4659 7.27541 -3.22149
head 10.3441 2.30885 1.10709
rclavicle 8.26944e-014 9.14409e-015
rhumerus -31.6871 -1.49606 -25.712
rradius 17.829
rwrist 4.68365
rhand -9.22715 4.13894
rfingers 7.12502
rthumb 16.7278 -25.1604
lclavicle 8.26944e-014 9.14409e-015
lhumerus 69.5671 29.1858 17.0192
lradius 31.3025
lwrist 24.4529
lhand -43.1267 -4.85944
lfingers 7.12502
lthumb -15.9804 24.5014
rfemur -25.9602 6.53759 24.4577
rtibia 38.5663
rfoot 48.2047 9.23061
rtoes 23.7743
lfemur -34.472 -8.82901 -15.2983
ltibia 30.6702
lfoot 8.8703 22.9976
ltoes 41.2115
1669
root 8.2827 9.89299 11.4769 90.2685 -5.1049 -8.36068
lowerback 2.17492 -5.85314 -6.45493
upperback -3.53721 -8.26535 -1.48942
thorax -4.21319 -3.94741 2.4572
lowerneck -23.6515 2.95318 -6.18969
upperneck 20.7135 7.32421 -4.30274
head 10.5541 2.24433 0.599009
rclavicle 1.59028e-014 1.39149e-014
rhumerus -30.5742 -2.25513 -23.7243
rradius 18.4635
rwrist 2.88871
rhand -9.50534 3.57993
rfingers 7.12502
rthumb 16.4599 -25.7418
lclavicle 1.59028e-014 1.39149e-014
lhumerus 68.9451 29.4582 16.4293
lradius 31.5887
lwrist 25.9903
lhand -43.6885 -4.75839
lfingers 7.12502
lthumb -16.5213 24.5582
rfemur -26.1251 6.30733 24.3628
rtibia 38.2909
rfoot 47.8911 9.23469
rtoes 23.5563
lfemur -34.176 -8.33283 -15.7004
ltibia 30.9235
lfoot 8.83551 22.4462
ltoes 40.4759
1670
root 8.29874 9.89187 11.4642 90.189 -5.13407 -8.74449
lowerback 2.33954 -5.8309 -6.58522
upperback -3.55665 -8.25629 -1.4952
thorax -4.31132 -3.93352 2.54128
lowerneck -23.7161 3.00681 -5.53312
upperneck 20.7742 7.35336 -4.98028
head 10.6467 2.2177 0.260431
rclavicle -1.59028e-014 -8.74653e-015
rhumerus -29.5042 -2.84189 -21.8943
rradius 19.2264
rwrist 0.64622
rhand -9.81914 3.03256
rfingers 7.12502
rthumb 16.1578 -26.314
lclavicle -1.59028e-014 -8.74653e-015
lhumerus 68.2878 29.6901 15.7761
lradius 31.8907
lwrist 27.6747
lhand -44.2172 -4.73515
lfingers 7.12502
lthumb -17.0303 24.5383
rfemur -26.3402 6.09022 24.2711
rtibia 37.8088
rfoot 47.4392 9.14645
rtoes 23.334
lfemur -33.8316 -7.73481 -16.1766
ltibia 31.3234
lfoot 8.86591 21.7599
ltoes 39.6759
1671
root 8.31536 9.88821 11.4504 90.1068 -5.13793 -9.07537
lowerback 2.48876 -5.82364 -6.66972
upperback -3.57033 -8.26432 -1.5056
thorax -4.40001 -3.93024 2.59461
lowerneck -23.6831 3.07259 -5.18402
upperneck 20.6585 7.34542 -5.12195
head 10.6162 2.23094 0.151998
rclavicle -3.81667e-014 -1.23246e-014
rhumerus -28.448 -3.44586 -20.1342
rradius 20.0666
rwrist -1.8582
rhand -10.0615 2.56131
rfingers 7.12502
rthumb 15.9244 -26.804
lclavicle -3.81667e-014 -1.23246e-014
lhumerus 67.6337 29.8812 15.1018
lradius 32.1786
lwrist 29.3883
lhand -44.6392 -4.75275
lfingers 7.12502
lthumb -17.4365 24.4852
rfemur -26.6082 5.90788 24.1866
rtibia 37.1475
rfoot 46.8734 9.06511
rtoes 23.0521
lfemur -33.4435 -7.09656 -16.6829
ltibia 31.8474
lfoot 8.96744 20.987
ltoes 38.9145
1672
root 8.33241 9.88239 11.4356 90.0245 -5.11375 -9.35898
lowerback 2.61131 -5.8315 -6.7139
upperback -3.5716 -8.28779 -1.51657
thorax -4.46456 -3.93723 2.62242
lowerneck -23.636 3.14385 -4.96478
upperneck 20.5119 7.32501 -5.02174
head 10.5539 2.26111 0.147804
rclavicle -3.18055e-015 0
rhumerus -27.3723 -4.22788 -18.3949
rradius 20.9387
rwrist -4.38839
rhand -10.1859 2.16535
rfingers 7.12502
rthumb 15.8046 -27.2095
lclavicle -3.18055e-015 0
lhumerus 66.9882 30.0389 14.4106
lradius 32.4331
lwrist 31.0432
lhand -44.9188 -4.76308
lfingers 7.12502
lthumb -17.7055 24.4508
rfemur -26.9376 5.7859 24.1084
rtibia 36.3436
rfoot 46.204 9.03273
rtoes 22.6872
lfemur -33.0143 -6.46746 -17.1856
ltibia 32.4692
lfoot 9.15293 20.1744
ltoes 38.3376
